<svg fill="none" height="24" viewBox="0 0 24 24" width="24" xmlns="http://www.w3.org/2000/svg"><g fill="#292d32"><path d="m7.81 2h8.37c3.65 0 5.82 2.17 5.82 5.81v8.37c0 3.64-2.17 5.81-5.81 5.81h-8.38c-3.64.01-5.81-2.16-5.81-5.8v-8.38c0-3.64 2.17-5.81 5.81-5.81z" opacity=".4"/><path d="m10.2405 6.25c-.42003 0-.75003.34-.75003.75v8.19l-1.67-1.67c-.29-.29-.77-.29-1.06 0s-.29.77 0 1.06l2.95 2.95c.07.07.15.12.24.16.09003.04.19003.06.29003.06s.19-.02.29-.06c.18-.08.33-.22.41-.41.04-.09.06-.19.06-.29v-9.99c-.01-.41-.35-.75-.76-.75z"/><path d="m17.2398 9.42-2.95-2.95c-.07-.07-.15-.12-.24-.16-.18-.08-.39-.08-.57 0s-.33.22-.41.41c-.04.09-.06.18-.06.28v10c0 .41.34.75.75.75s.75-.34.75-.75v-8.19l1.67 1.67c.15.15.34.22.53.22s.38-.07.53-.22c.29-.29.29-.77 0-1.06z"/></g></svg>